<svg xmlns="http://www.w3.org/2000/svg" xmlns:xlink="http://www.w3.org/1999/xlink" version="1.1" x="0px" y="0px" width="100px" height="100px" viewBox="5.0 -10.0 100.0 135.0" enable-background="new 0 0 100 100" xml:space="preserve">
<g id="Captions">
	<path d="M72.4,26.142c-1.35-1.109-3.691-0.388-4.82-0.771c-8.244-2.797-3.496-3.904-9.811-8.701   c-1.721-1.306-4.363-6.195-4.797-7.737l-1.881,0.385C45.5,9.51,42.993,5.123,42.993,5.123c-1.398,0.337-1.639,1.881-1.639,1.881   c-0.917-0.821-1.688,0.674-1.688,0.674c2.074,3.664-1.784,3.64-1.784,3.64c0.481,2.603-2.266,3.35-2.266,3.35   c0.869,3.085-2.218,4.195-2.218,4.195c1.591,2.893-0.626,4.146-0.626,4.146c1.881,2.506,0.145,4.821,0.145,4.821   c2.266,2.072,0.964,5.398,0.964,5.398c3.061,1.592,2.024,4.773,2.024,4.773c3.422,1.446,1.494,4.628,1.494,4.628   c3.013,1.446,1.542,4.483,1.542,4.483c3.664,0.241,1.736,4.193,3.647,4.851c-1.172,0.655-2.29,0.603-3.044,0.935   c-3.616,1.591-1.361,2.769,0.218,7.954c0.505,1.662-0.218,3.904,3.893,3.878c-0.02,0.129-0.041,0.259-0.061,0.389   c-0.796,4.989-6.773,10.679-6.485,17.186c0.184,4.11,3.567,13.499,13.162,9.884c8.124-3.062,6.918-10.872,3.711-13.017   c-2.628-1.759-6.133-0.906-7.183,0.699c-3.061,4.676,1.59,6.749,3.592,6.29c2.312-0.529,3.512-2.87,2.555-4.121   c-1.255-1.639-2.675-1.447-3.375-0.819c-0.927,0.832,0.192,2.097,0.192,2.097c-1.542,0.435-1.784-1.084-1.542-1.64   c1.215-2.791,4.581-1.396,5.592,0.436c1.269,2.293,0.868,7.038-4.507,8.05c-8.428,1.588-10.147-10.533,0.965-17.258   c7.472-3.11,12.053-14.512,12.053-14.512c-0.965-1.061-0.074-5.784-0.074-5.784c-1.156-1.303-1.59-4.267-0.94-6.365   c-3.76-2.675-2.939-6.845-2.939-6.845c-3.761-0.531-3.086-4.146-3.086-4.146c-4.386-0.819-3.808-3.712-3.808-3.712   c-2.99,0-1.971-2.574-1.971-2.574c-1.337,0.146-6.99-5.013-5.679-8.747c-0.178,4.047,4.118,6.311,4.377,6.433   c1.23,0.578,2.472,1.236,7.611,0.79c1.014-0.088,8.248,1.356,10.558,2.893c2.936,1.95,3.808,1.445,3.808,1.445   C72.737,30.963,73.75,27.251,72.4,26.142z M55.148,18.851c-0.537,0-0.971-0.435-0.971-0.971s0.434-0.971,0.971-0.971   c0.536,0,0.971,0.435,0.971,0.971S55.685,18.851,55.148,18.851z"/>
</g>
<g id="Your_Icon">
</g>
<text x="0.0" y="117.5" font-size="5.0" font-weight="bold" font-family="Helvetica Neue, Helvetica, Arial-Unicode, Arial, Sans-serif" fill="#000000">Created by Agne Alesiute</text><text x="0.0" y="122.5" font-size="5.0" font-weight="bold" font-family="Helvetica Neue, Helvetica, Arial-Unicode, Arial, Sans-serif" fill="#000000">from the Noun Project</text></svg>