<?xml version="1.0" encoding="UTF-8" standalone="no"?>
<svg width="38px" height="83px" viewBox="0 0 38 83" version="1.1" xmlns="http://www.w3.org/2000/svg" xmlns:xlink="http://www.w3.org/1999/xlink" xmlns:sketch="http://www.bohemiancoding.com/sketch/ns">
   
    <defs></defs>
    <g id="Page-1" stroke="none" stroke-width="1" fill="none" fill-rule="evenodd" sketch:type="MSPage">
        <g id="Captions" sketch:type="MSLayerGroup" fill="#000000">
            <path d="M37.4340283,19.8522985 C36.1587699,18.8048558 33.9473775,19.4858352 32.8808836,19.1240944 C25.0933059,16.4823475 29.5784368,15.4367937 23.6130616,10.9060607 C21.9873434,9.67255288 19.4916155,5.05492657 19.0816436,3.59851836 L17.3047836,3.96214816 C12.0233247,4.14349082 9.65512272,0 9.65512272,0 C8.33452184,0.318294143 8.10686461,1.77659135 8.10686461,1.77659135 C7.24063356,1.00116259 6.51231935,2.41317963 6.51231935,2.41317963 C8.47149404,5.87380201 4.82708904,5.85113418 4.82708904,5.85113418 C5.28145887,8.30964947 2.68654427,9.01518575 2.68654427,9.01518575 C3.5074328,11.9289467 0.591342024,12.9773339 0.591342024,12.9773339 C2.09425761,15.7097522 0,16.8932019 0,16.8932019 C1.77685998,19.2601014 0.136972194,21.4466027 0.136972194,21.4466027 C2.27751696,23.4035922 1.04760112,26.5449759 1.04760112,26.5449759 C3.93913137,28.0486088 2.95954403,31.0530411 2.95954403,31.0530411 C6.1920878,32.418778 4.37082994,35.4241547 4.37082994,35.4241547 C7.21701767,36.7898916 5.82745838,39.6583169 5.82745838,39.6583169 C9.28860402,39.8859397 7.46734616,43.618576 9.27254521,44.2400524 C8.16543203,44.8586953 7.10932918,44.8095817 6.39707378,45.1231534 C2.98127065,46.6258418 5.11142442,47.7384545 6.60300438,52.6356508 C7.08004547,54.2053981 6.39707378,56.3229515 10.2804716,56.2983946 C10.2615789,56.4202342 10.2417416,56.5430183 10.2228488,56.6658024 C9.47091874,61.377878 3.82483044,66.7520432 4.09688555,72.8978592 C4.27069854,76.7797255 7.46640152,85.6475703 16.5301822,82.2332281 C24.2044036,79.3411905 23.0651728,71.9647001 20.0357258,69.9387626 C17.5532228,68.2773994 14.2422743,69.083052 13.2504067,70.5989633 C10.3588764,75.0154126 14.7523776,76.9733466 16.6435385,76.5398243 C18.8275365,76.0401875 19.9610995,73.8291293 19.057083,72.6475686 C17.8715651,71.0995445 16.5301822,71.2808872 15.8689371,71.8740288 C14.9932597,72.659847 16.0503072,73.8546306 16.0503072,73.8546306 C14.5936788,74.2654851 14.3650769,72.8308002 14.5936788,72.3056621 C15.7414113,69.6695821 18.9210555,70.9871499 19.8760823,72.7174611 C21.0748252,74.8831835 20.6960262,79.3648028 15.6186087,80.3206298 C7.65721796,81.8204847 6.03338898,70.3722849 16.5301822,64.0205695 C23.5885011,61.0831962 27.9158778,50.314087 27.9158778,50.314087 C27.0043042,49.3119799 27.8459747,44.8511394 27.8459747,44.8511394 C26.7539757,43.620465 26.3440038,40.8209877 26.958017,38.8394414 C23.4061864,36.3129226 24.1817324,32.3743868 24.1817324,32.3743868 C20.628957,31.872861 21.2665862,28.4585188 21.2665862,28.4585188 C17.1234135,27.684979 17.669413,24.9525607 17.669413,24.9525607 C14.8449519,24.9525607 15.8075358,22.5214357 15.8075358,22.5214357 C14.5445577,22.6593317 9.20453143,17.7866923 10.442949,14.2599554 C10.2748038,18.0823186 14.3329593,20.2206508 14.57762,20.3358789 C15.739522,20.8817959 16.9127597,21.5032723 21.7672432,21.0820284 C22.7251039,20.998913 29.5585995,22.3627609 31.7407082,23.8144467 C34.514159,25.656208 35.3378814,25.1792391 35.3378814,25.1792391 C37.7523706,24.4056993 38.7092866,20.8997412 37.4340283,19.8522985 L37.4340283,19.8522985 Z M21,13 C20.4469619,13 20,12.5520082 20,12 C20,11.4479918 20.4469619,11 21,11 C21.5520082,11 22,11.4479918 22,12 C22,12.5520082 21.5530381,13 21,13 L21,13 Z" id="Shape" sketch:type="MSShapeGroup"></path>
        </g>
        <g id="Your_Icon" sketch:type="MSLayerGroup" transform="translate(-31.000000, -5.000000)"></g>
    </g>
</svg>